<svg width="82" height="82" viewBox="0 0 82 82" fill="none" xmlns="http://www.w3.org/2000/svg">
  <!-- Stomach outline -->
  <path d="M28 18C22 18 16 23 16 31C16 37 18 42 18 48C18 56 22 66 32 66C38 66 42 62 46 62C52 62 56 66 62 64C68 62 68 54 66 48C64 42 60 38 60 32C60 24 56 18 50 18C46 18 44 20 42 20C40 20 36 18 32 18H28Z" stroke="black" stroke-width="2" stroke-linejoin="round"/>
  <!-- Stomach inner folds -->
  <path d="M26 28C28 26 32 26 34 28" stroke="black" stroke-width="2" stroke-linecap="round"/>
  <path d="M22 36C25 33 30 33 33 35" stroke="black" stroke-width="2" stroke-linecap="round"/>
  <!-- Small intestine loop -->
  <path d="M32 66C32 72 38 74 44 72C50 70 52 64 48 60" stroke="black" stroke-width="2" stroke-linecap="round"/>
</svg>
