<svg width="82" height="82" viewBox="0 0 82 82" fill="none" xmlns="http://www.w3.org/2000/svg">
  <!-- Brain outline -->
  <path d="M40 14C40 14 28 12 22 20C16 28 18 38 22 44C24 48 22 54 26 58C30 62 36 62 40 58C44 62 52 62 56 58C60 54 58 48 60 44C64 38 64 28 58 20C52 12 40 14 40 14Z" stroke="black" stroke-width="2" stroke-linejoin="round"/>
  <!-- Left lobe fold -->
  <path d="M26 30C28 26 34 25 37 28" stroke="black" stroke-width="2" stroke-linecap="round"/>
  <!-- Right lobe fold -->
  <path d="M54 30C52 26 46 25 43 28" stroke="black" stroke-width="2" stroke-linecap="round"/>
  <!-- Center divide -->
  <path d="M40 14L40 58" stroke="black" stroke-width="1.5" stroke-linecap="round" stroke-dasharray="3 3"/>
  <!-- Scalpel -->
  <path d="M54 54L70 70" stroke="black" stroke-width="2.5" stroke-linecap="round"/>
  <path d="M58 50L72 64L68 68L54 54Z" stroke="black" stroke-width="2" stroke-linejoin="round"/>
  <path d="M54 54L58 50" stroke="black" stroke-width="2" stroke-linecap="round"/>
</svg>
