<svg xmlns="http://www.w3.org/2000/svg" width="200" height="200" viewBox="0 0 200 200" fill="none">
  <circle cx="100" cy="100" r="100" fill="#F1F1F1"/>
  <path d="M92.1426 115.471C92.1539 119.891 92.2107 124.315 92.1768 128.726C92.1767 129.039 92.1366 129.325 92.1045 129.608C92.0722 129.893 92.0469 130.181 92.0742 130.512L92.1064 130.779C92.3022 132.085 93.066 132.923 94.0791 133.475C95.1635 134.065 96.5297 134.325 97.7803 134.467C100.348 134.331 102.999 134.417 105.641 134.493C108.288 134.57 110.926 134.638 113.47 134.468L113.765 134.443C115.235 134.298 116.604 133.818 117.522 132.981C118.481 132.106 118.957 130.834 118.529 129.109H115.273C115.008 129.109 114.784 128.963 114.625 128.757C114.466 128.551 114.367 128.278 114.345 128.001C114.323 127.724 114.379 127.435 114.545 127.201C114.713 126.965 114.986 126.796 115.375 126.75L115.699 126.723C116.023 126.706 116.343 126.721 116.655 126.74C117.074 126.766 117.473 126.802 117.855 126.792C118.236 126.782 118.591 126.727 118.917 126.576C119.241 126.426 119.543 126.177 119.813 125.771L119.958 125.54C120.63 124.384 120.755 122.966 120.236 121.732H116.856C116.53 121.732 116.272 121.478 116.118 121.189C115.963 120.896 115.892 120.529 115.968 120.242C116.049 119.925 116.201 119.71 116.403 119.573C116.603 119.438 116.843 119.385 117.088 119.371C117.333 119.357 117.594 119.381 117.84 119.406C118.089 119.432 118.323 119.458 118.526 119.452L119.68 119.415C119.911 119.404 120.136 119.389 120.318 119.369C120.409 119.359 120.488 119.349 120.552 119.337C120.617 119.325 120.659 119.312 120.679 119.303L120.68 119.302L120.78 119.241C120.881 119.166 120.982 119.048 121.081 118.895C121.211 118.693 121.329 118.441 121.43 118.175C121.632 117.641 121.759 117.066 121.775 116.75L121.781 116.392C121.78 116.254 121.775 116.103 121.766 115.953C121.748 115.656 121.714 115.372 121.668 115.2C121.667 115.199 121.667 115.198 121.666 115.197C121.662 115.191 121.657 115.182 121.651 115.171C121.639 115.15 121.624 115.121 121.605 115.088C121.568 115.022 121.52 114.939 121.472 114.857C121.423 114.776 121.375 114.695 121.337 114.637C121.32 114.61 121.305 114.589 121.294 114.574C121.105 114.533 120.845 114.529 120.54 114.542C120.382 114.549 120.216 114.559 120.044 114.57C119.873 114.581 119.697 114.593 119.522 114.6C119.175 114.614 118.827 114.612 118.526 114.562C118.265 114.517 118.026 114.433 117.855 114.277L117.786 114.206C117.536 113.91 117.465 113.472 117.553 113.09C117.64 112.707 117.893 112.355 118.314 112.259H118.315L118.515 112.227C118.726 112.201 118.972 112.197 119.233 112.202C119.583 112.21 119.97 112.236 120.345 112.257C120.721 112.278 121.087 112.295 121.403 112.285C121.723 112.276 121.977 112.24 122.138 112.164L122.139 112.163L122.2 112.126C122.265 112.078 122.335 112.001 122.408 111.896C122.503 111.758 122.595 111.586 122.677 111.402C122.841 111.034 122.959 110.637 122.985 110.423L123.027 110.02C123.094 109.099 122.945 108.315 122.561 107.727C122.151 107.1 121.462 106.678 120.438 106.555L120.229 106.534C118.665 106.41 116.945 106.5 115.229 106.577C113.516 106.654 111.806 106.717 110.276 106.534V106.533C109.727 106.472 109.266 106.064 109.228 105.477L109.226 105.399C109.231 105.213 109.303 104.98 109.405 104.732C109.524 104.445 109.69 104.121 109.868 103.798C110.046 103.474 110.238 103.148 110.406 102.857C110.575 102.566 110.72 102.312 110.809 102.129L111.03 101.656C111.527 100.574 111.881 99.6154 112.065 98.627C112.25 97.6399 112.267 96.6188 112.088 95.4112L111.999 94.8809C111.674 93.1428 110.623 90.9021 109.138 89.3555C108.396 88.583 107.551 87.9884 106.64 87.713C105.788 87.4555 104.873 87.4755 103.922 87.8956L103.73 87.9844C103.214 88.2416 102.912 88.5852 102.747 88.9805C102.581 89.3791 102.551 89.8391 102.591 90.3321C102.631 90.8252 102.742 91.3427 102.853 91.8555C102.963 92.3651 103.073 92.8721 103.107 93.3321L103.133 93.835C103.181 95.9523 102.476 97.3376 101.48 99.0001L101.002 99.7911C100.17 101.158 98.7138 103.363 97.0469 105.275C96.2135 106.232 95.325 107.117 94.4336 107.789C93.5992 108.418 92.7547 108.865 91.9443 109L91.7832 109.023C90.9066 109.127 89.5525 109.125 88.6309 109.148L88.6318 109.148C87.2711 109.194 85.7426 109.121 84.2363 109.072C82.7272 109.024 81.2391 109.002 79.9473 109.148H79.9463C79.5041 109.197 79.1659 109.37 78.9287 109.632C78.7206 109.862 78.5846 110.167 78.5283 110.533L78.5088 110.694C78.2041 114.065 78.5098 118.358 78.5098 121.859V133.15C78.5478 133.436 78.6803 133.744 78.8789 133.992C79.0789 134.242 79.3388 134.423 79.624 134.469L79.9111 134.508C80.5977 134.583 81.3995 134.55 82.2197 134.506C83.1516 134.456 84.1073 134.393 84.9189 134.468L85.083 134.489C85.8802 134.621 86.2864 135.145 86.291 135.694C86.2954 136.24 85.9023 136.773 85.1826 136.917L85.0342 136.94C84.4556 137.01 83.1666 137.038 81.9004 137.011C81.2663 136.997 80.6355 136.969 80.0996 136.926C79.7 136.894 79.3479 136.852 79.0859 136.8L78.8555 136.743C77.605 136.371 76.4657 135.213 76.2031 133.89L76.1621 133.623C76.0314 132.417 76.0319 130.982 76.0645 129.538C76.097 128.091 76.1621 126.638 76.1621 125.383V120.734C76.1621 119.099 76.0826 117.239 76.043 115.387C76.0034 113.538 76.0032 111.7 76.1621 110.119L76.1807 109.974C76.2913 109.245 76.6918 108.525 77.2393 107.955C77.8231 107.348 78.5835 106.902 79.3574 106.802L79.8291 106.754C81.0041 106.663 82.6638 106.696 83.7539 106.676L84.6572 106.669C85.5813 106.676 86.5605 106.717 87.5283 106.744C88.8209 106.781 90.0946 106.794 91.2061 106.676L91.4258 106.639C91.9464 106.523 92.5181 106.205 93.1104 105.749C93.785 105.23 94.4764 104.541 95.1348 103.795C96.4512 102.304 97.6294 100.598 98.2783 99.6055L98.9102 98.6299C99.1416 98.2675 99.3858 97.8765 99.6152 97.4815C100.076 96.6887 100.473 95.8931 100.604 95.296L100.662 94.9844C100.772 94.2515 100.714 93.4855 100.609 92.709C100.491 91.8286 100.309 90.9245 100.256 90.0684C100.202 89.208 100.276 88.3748 100.676 87.6221C101.076 86.8679 101.798 86.2072 103.014 85.6778L103.354 85.5391C105.044 84.8948 106.621 84.9804 108.027 85.5694C109.525 86.1965 110.822 87.3912 111.859 88.8692C113.868 91.7306 114.92 95.6792 114.553 98.7139L114.513 99.0049C114.364 99.9679 114.003 100.862 113.608 101.729C113.232 102.555 112.828 103.353 112.533 104.175H121.141C121.235 104.175 121.372 104.205 121.519 104.247C121.669 104.29 121.841 104.349 122.012 104.413C122.353 104.54 122.697 104.689 122.861 104.777L122.979 104.842L122.964 104.856C124.337 105.656 125.108 107.018 125.353 108.5C125.603 110.021 125.302 111.674 124.528 112.995L124.529 112.996C124.439 113.16 124.254 113.375 124.1 113.566C124.02 113.665 123.947 113.759 123.891 113.843C123.832 113.93 123.801 113.994 123.794 114.034L123.793 114.036C123.78 114.102 123.786 114.192 123.808 114.304C123.829 114.415 123.865 114.539 123.906 114.67C123.986 114.925 124.087 115.215 124.111 115.449V115.45L124.139 115.766C124.239 117.223 123.993 118.464 123.322 119.746L123.172 120.022C123.093 120.162 122.926 120.357 122.788 120.527C122.717 120.615 122.652 120.698 122.604 120.77C122.58 120.805 122.561 120.837 122.548 120.863C122.534 120.891 122.529 120.908 122.528 120.916V120.919C122.517 120.992 122.534 121.129 122.575 121.321C122.615 121.508 122.675 121.731 122.736 121.965C122.858 122.425 122.992 122.94 122.992 123.28C122.992 123.759 122.88 124.388 122.712 124.999C122.544 125.61 122.319 126.212 122.088 126.636L122.087 126.637C122.029 126.741 121.919 126.89 121.793 127.053C121.665 127.217 121.515 127.401 121.372 127.577C121.228 127.754 121.092 127.922 120.99 128.056C120.939 128.122 120.898 128.179 120.869 128.223C120.855 128.245 120.845 128.263 120.838 128.275C120.83 128.291 120.832 128.292 120.833 128.284C120.827 128.346 120.832 128.426 120.85 128.522C120.867 128.617 120.894 128.723 120.924 128.834C120.982 129.052 121.052 129.296 121.07 129.5V129.501L121.097 129.988C121.158 132.373 120.207 134.032 118.708 135.13C117.215 136.223 115.187 136.753 113.097 136.904L112.679 136.93C108.897 137.119 104.138 137.151 100.111 137.004L98.4355 136.93C96.5403 136.833 94.5108 136.452 92.8799 135.547C91.2449 134.639 90.0099 133.202 89.7168 131L89.7148 130.986L89.8154 130.987L89.7158 130.986L89.8291 115.334V115.315L89.8369 115.296C90.079 114.724 90.5697 114.459 91.0479 114.493C91.5252 114.528 91.9751 114.86 92.1387 115.444L92.1426 115.457V115.471Z" fill="#F26522" stroke="#F26522" stroke-width="0.2"/>
  <path d="M105.475 56.9003C105.821 56.8948 106.164 57.0535 106.396 57.3817L106.487 57.5331L106.491 57.5409L109.959 65.6923C109.977 65.7024 110.002 65.7168 110.038 65.7294C110.086 65.7462 110.146 65.7627 110.216 65.7782C110.355 65.8092 110.526 65.8357 110.704 65.8583C111.061 65.9034 111.437 65.9309 111.631 65.9481H111.632L112.503 66.0214C113.393 66.0842 114.334 66.1207 115.272 66.1698C116.522 66.2352 117.766 66.3232 118.864 66.5292H118.863C119.349 66.6168 119.651 66.9755 119.736 67.3856C119.821 67.7937 119.691 68.2569 119.317 68.5663L119.318 68.5673L112.727 74.3251L114.715 83.0077L114.717 83.0175L114.617 83.0302L114.717 83.0184C114.816 83.8274 114.131 84.4366 113.332 84.2762V84.2753C113.284 84.2663 113.214 84.2378 113.139 84.202C113.058 84.1635 112.957 84.111 112.845 84.0497C112.62 83.9269 112.342 83.7651 112.064 83.5985C111.534 83.2801 110.993 82.9352 110.821 82.8036C110.722 82.7804 110.59 82.7247 110.44 82.6483C110.275 82.5636 110.077 82.4492 109.858 82.3163C109.421 82.0505 108.895 81.7051 108.366 81.3544C107.836 81.003 107.303 80.6469 106.851 80.3573C106.395 80.0656 106.029 79.8485 105.831 79.7704L105.83 79.7694C105.786 79.7515 105.741 79.7307 105.703 79.7137C105.663 79.696 105.627 79.6808 105.591 79.6698C105.524 79.6493 105.46 79.6439 105.385 79.6678L97.8369 84.2069L97.8271 84.2128V84.2118C97.0134 84.5894 96.1511 83.8828 96.2617 83.0175L96.2627 83.0077L96.3604 83.0302L96.2637 83.0077L98.2432 74.3593L91.626 68.579L91.6201 68.5731C91.3038 68.2488 91.1776 67.7978 91.2529 67.4003C91.3292 66.9986 91.6123 66.6523 92.1016 66.5526L92.1055 66.5516L92.6289 66.4745C93.8564 66.3102 95.1335 66.2466 96.4023 66.1844C97.8547 66.1133 99.2964 66.0451 100.652 65.8358L100.751 65.8153C100.839 65.7926 100.915 65.7555 100.981 65.6991L104.453 57.5409L104.458 57.5302L104.553 57.3876C104.788 57.0745 105.13 56.9058 105.475 56.9003ZM105.437 61.0477L102.488 67.6796L102.481 67.6971L102.457 67.7216L102.432 67.746L102.396 67.7499L95.1094 68.5223L100.566 73.5565L100.607 73.5946L100.596 73.6503L99.0791 80.8427C99.9702 80.3778 100.852 79.8035 101.735 79.2264C102.678 78.6105 103.624 77.9932 104.58 77.5184L104.808 77.4198C105.34 77.2216 105.872 77.2541 106.398 77.5184L106.743 77.6981C107.163 77.9246 107.784 78.2776 108.39 78.6346C108.794 78.873 109.192 79.1141 109.519 79.3221C109.835 79.5236 110.091 79.6987 110.22 79.8104L110.917 80.2626C111.124 80.3564 111.318 80.4797 111.506 80.6005C111.636 80.6843 111.764 80.7654 111.894 80.8387L110.383 74.1522L110.38 74.1395V74.1385C110.351 73.819 110.389 73.5938 110.493 73.3944C110.595 73.2007 110.757 73.0384 110.952 72.8427L111.496 72.329C112.054 71.8206 112.651 71.326 113.251 70.8358C114.052 70.1813 114.858 69.5348 115.591 68.8719C115.712 68.7592 115.838 68.6433 115.934 68.5204L109.16 67.955L109.148 67.954V67.953C108.859 67.8937 108.657 67.7996 108.495 67.6522C108.336 67.5074 108.221 67.3173 108.097 67.0839V67.0829C107.596 66.1222 107.181 65.0543 106.777 63.9862C106.386 62.9524 106.004 61.9197 105.562 60.9735L105.437 61.0477Z" fill="#F26522" stroke="#F26522" stroke-width="0.2"/>
  <path d="M140.605 70.2939C141.081 69.852 141.757 69.9908 142.141 70.4434L142.214 70.5381L142.22 70.5459L142.224 70.5557L144.201 75.2402L149.294 75.7305L149.317 75.708L149.377 75.7295C149.667 75.8307 149.882 75.979 150.001 76.1943C150.12 76.4095 150.133 76.6726 150.062 76.9814L150.063 76.9824C150.037 77.1013 149.953 77.2334 149.844 77.3691C149.732 77.5077 149.583 77.6613 149.41 77.8242C149.064 78.1504 148.615 78.5215 148.156 78.8936C147.697 79.2665 147.229 79.6406 146.841 79.9766C146.459 80.307 146.168 80.5911 146.036 80.7939C146.026 80.8491 146.026 80.9449 146.043 81.084C146.061 81.23 146.096 81.4113 146.142 81.6182C146.234 82.032 146.371 82.5418 146.516 83.0664C146.66 83.5898 146.81 84.1286 146.929 84.5977C147.046 85.0639 147.134 85.4713 147.148 85.7295L147.149 85.8867C147.133 86.2445 146.989 86.5355 146.751 86.7109C146.479 86.9119 146.103 86.9465 145.71 86.7822L145.697 86.7773L145.698 86.7764L141.352 84.2031L136.914 86.7988L136.903 86.8057V86.8047C136.494 86.9793 136.114 86.8872 135.859 86.6396C135.609 86.3952 135.488 86.0076 135.567 85.6025L135.568 85.5996L136.671 80.832C136.667 80.8042 136.655 80.7689 136.627 80.7246C136.596 80.6754 136.55 80.6207 136.491 80.5615C136.373 80.4429 136.214 80.3156 136.043 80.1807C135.874 80.0474 135.694 79.9065 135.543 79.7666C135.394 79.6284 135.264 79.48 135.201 79.3281L135.2 79.3291C135.005 78.8558 135.121 78.4172 135.412 78.1562C135.666 77.9287 136.042 77.8459 136.428 77.9814L136.593 78.0537L136.595 78.0547L136.677 78.1055C136.773 78.171 136.908 78.2777 137.061 78.4033C137.267 78.5737 137.513 78.7874 137.751 79.0049C137.989 79.2222 138.221 79.4448 138.399 79.6318C138.489 79.7253 138.567 79.8109 138.625 79.8838C138.68 79.9522 138.727 80.0217 138.745 80.0791L138.768 80.168C138.809 80.3823 138.785 80.65 138.732 80.9355C138.671 81.2656 138.567 81.6371 138.46 82.0088C138.352 82.3826 138.241 82.7574 138.162 83.0986C138.099 83.3731 138.059 83.619 138.056 83.8213C138.228 83.7393 138.433 83.6195 138.657 83.4756C138.942 83.2933 139.249 83.0807 139.561 82.874C139.87 82.6685 140.183 82.4701 140.467 82.3203C140.748 82.1724 141.016 82.0643 141.234 82.0547L141.339 82.0557C141.584 82.0677 141.843 82.1566 142.103 82.2822C142.4 82.4265 142.709 82.624 143.014 82.8271C143.32 83.0318 143.622 83.2416 143.911 83.415C144.163 83.5657 144.399 83.6814 144.612 83.7451C144.612 83.726 144.614 83.703 144.612 83.6768C144.605 83.5819 144.584 83.4542 144.552 83.3008C144.487 82.9939 144.383 82.5995 144.278 82.1865C144.174 81.7754 144.069 81.3465 144.003 80.9775C143.97 80.7932 143.947 80.6213 143.938 80.4727C143.931 80.326 143.936 80.1925 143.969 80.0898C144.034 79.8789 144.222 79.6511 144.454 79.4248C144.69 79.1947 144.988 78.952 145.29 78.7119C145.593 78.4707 145.9 78.2325 146.163 78.0078C146.374 77.8277 146.548 77.6597 146.668 77.5127C146.467 77.456 146.221 77.4204 145.946 77.3984C145.611 77.3715 145.242 77.3637 144.874 77.3516C144.508 77.3395 144.142 77.3228 143.818 77.2793C143.497 77.236 143.205 77.1651 142.994 77.0342V77.0332C142.906 76.9779 142.823 76.8878 142.745 76.7803C142.666 76.6717 142.587 76.539 142.51 76.3906C142.355 76.0934 142.2 75.7261 142.054 75.3516C141.907 74.977 141.767 74.5904 141.642 74.2568C141.555 74.0249 141.476 73.8199 141.406 73.6592L139.87 76.8779L139.862 76.8955L139.849 76.9082C139.048 77.6506 137.817 76.83 138.229 75.7871L138.23 75.7842L140.581 70.3281L140.59 70.3086L140.605 70.2939Z" fill="#F26522" stroke="#F26522" stroke-width="0.2"/>
  <path d="M69.5947 70.0267C69.8422 70.0016 70.093 70.0724 70.3193 70.2386L70.4141 70.3148L70.4316 70.3304L70.4404 70.351L72.8252 75.9545L72.8291 75.9642L72.8311 75.975C73.0188 76.9564 71.8765 77.5773 71.1611 76.8959L71.1475 76.8832L71.1396 76.8666L69.6006 73.6429C69.5267 73.8054 69.4445 74.0136 69.3555 74.2494C69.2303 74.5809 69.0914 74.9676 68.9482 75.3392C68.8045 75.7122 68.6529 76.0784 68.5 76.3754C68.4236 76.5237 68.3455 76.6568 68.2666 76.766C68.208 76.8472 68.1466 76.9185 68.082 76.973L68.0166 77.0219C67.8057 77.156 67.5137 77.229 67.1924 77.2728C66.8688 77.317 66.5023 77.3328 66.1357 77.3441C65.7674 77.3555 65.3992 77.363 65.0635 77.389C64.79 77.4102 64.5446 77.4451 64.3438 77.5013C64.4639 77.6429 64.6382 77.8064 64.8467 77.9847C65.11 78.2099 65.4175 78.4518 65.7207 78.6967C66.0224 78.9404 66.3196 79.1877 66.5557 79.4193C66.7878 79.6471 66.9763 79.8735 67.041 80.0785L67.0645 80.1703C67.1113 80.3904 67.0942 80.6539 67.0469 80.932C66.9923 81.2524 66.8949 81.6069 66.7939 81.9603C66.6924 82.3159 66.5876 82.6705 66.5137 82.9984C66.4495 83.2832 66.4128 83.54 66.4189 83.7533C66.4299 83.7494 66.4434 83.7472 66.457 83.7416C66.5409 83.7069 66.6565 83.6461 66.7969 83.5658C67.077 83.4056 67.441 83.1752 67.8223 82.9379C68.2022 82.7014 68.5983 82.4584 68.9375 82.2767C69.107 82.186 69.2649 82.1101 69.4004 82.057C69.5321 82.0054 69.6567 81.9694 69.7549 81.975L69.7559 81.976L69.8242 81.9867C69.8976 82.004 69.9851 82.0391 70.0771 82.0824C70.2042 82.1421 70.3554 82.2247 70.5205 82.3207C70.8515 82.5131 71.2458 82.7639 71.625 83.0082C72.0052 83.2531 72.3699 83.4912 72.6475 83.6586C72.7865 83.7424 72.9009 83.8064 72.9824 83.8451L72.9844 83.8461C72.9638 83.6438 72.9121 83.3888 72.8398 83.1019C72.7513 82.7504 72.6391 82.3637 72.5352 81.975C72.4319 81.5888 72.3371 81.2035 72.2871 80.8666C72.2379 80.5347 72.2287 80.2302 72.3125 80.016V80.014L72.3633 79.9252C72.3849 79.8935 72.4104 79.8596 72.4385 79.8256C72.4972 79.7542 72.5737 79.6709 72.6611 79.5804C72.8363 79.3991 73.0612 79.1849 73.291 78.976C73.5208 78.767 73.7572 78.5615 73.957 78.3969C74.129 78.2551 74.2807 78.1405 74.377 78.0795L74.3789 78.0765L74.3916 78.0404L74.4248 78.0209C74.8514 77.7785 75.3027 77.8516 75.5967 78.1136C75.8909 78.3763 76.0175 78.8195 75.8213 79.2943V79.2953C75.7561 79.4493 75.6223 79.5987 75.4717 79.7386C75.3194 79.8801 75.1385 80.0217 74.9688 80.1556C74.7968 80.2914 74.6368 80.4195 74.5186 80.5385C74.4596 80.5977 74.414 80.6523 74.3828 80.7015C74.3535 80.7479 74.3408 80.7845 74.3379 80.8129C74.4505 81.5571 74.676 82.3445 74.8984 83.1371C75.0934 83.832 75.2862 84.5311 75.3926 85.1996L75.4326 85.4847V85.4857L75.4453 85.641C75.4638 85.9995 75.4026 86.3244 75.2275 86.5511C75.02 86.8199 74.675 86.9235 74.2041 86.8217L74.1885 86.8187L74.1748 86.8109L69.6553 84.1771C68.8542 84.5681 68.1026 85.0577 67.3428 85.5424C66.5702 86.0351 65.7894 86.5225 64.9502 86.8842L64.9355 86.891L64.9189 86.892C64.3058 86.9433 63.8497 86.4061 63.8496 85.8265V85.8158L63.8525 85.8051L64.9639 80.7552C64.961 80.7501 64.9578 80.7437 64.9531 80.7367C64.9395 80.7159 64.921 80.6898 64.8965 80.6605C64.8476 80.602 64.7827 80.5335 64.7129 80.4633L64.3447 80.1136C64.0533 79.8375 63.2493 79.2039 62.4902 78.5638C62.1134 78.2461 61.7491 77.928 61.4707 77.6556C61.3316 77.5195 61.2122 77.3927 61.123 77.2826C61.0587 77.2031 61.004 77.1249 60.9717 77.0531L60.9473 76.9838V76.9828C60.8761 76.6786 60.8898 76.4151 61.0088 76.1986C61.1279 75.9821 61.3428 75.8304 61.6338 75.7289L61.6445 75.725L61.6562 75.724L66.7969 75.2289L68.8203 70.4877L68.8262 70.474L68.835 70.4623C69.0466 70.207 69.3128 70.0554 69.5947 70.0267Z" fill="#F26522" stroke="#F26522" stroke-width="0.2"/>
  <path d="M125.31 62.7539C125.603 62.7459 125.909 62.8402 126.096 63.0723L126.169 63.1807L126.173 63.1895L129.056 69.9121C129.963 70.0515 130.878 70.0638 131.8 70.1543H131.801L132.203 70.208C132.339 70.2286 132.475 70.2515 132.609 70.2734C132.88 70.3176 133.143 70.3595 133.382 70.3818H133.381C133.52 70.3925 133.665 70.3841 133.819 70.377C133.971 70.3699 134.132 70.3637 134.288 70.3818L134.742 70.4385C134.892 70.4584 135.041 70.4782 135.192 70.4951H135.191C135.29 70.5055 135.398 70.5009 135.516 70.4951C135.63 70.4895 135.754 70.4828 135.87 70.4951H135.871L136.174 70.5371C136.264 70.5533 136.345 70.5737 136.42 70.6064C136.575 70.6747 136.698 70.7903 136.844 70.9893L136.93 71.1074C137.009 71.2217 137.068 71.327 137.096 71.4434C137.133 71.6014 137.11 71.7674 137.04 71.9893L137.033 72.0098L137.02 72.0254C136.183 72.9635 135.222 73.7859 134.256 74.5957C133.302 75.3947 132.344 76.1812 131.482 77.0586L131.476 77.0771C131.449 77.1438 131.443 77.2128 131.448 77.2891L131.481 77.5381L131.482 77.54L131.537 77.9209C131.689 78.8281 132.001 79.8539 132.304 80.8789C132.605 81.8984 132.896 82.9185 132.999 83.8027L133.031 84.1729V84.1738L133.028 84.3369C133.001 84.706 132.825 84.9954 132.561 85.168C132.26 85.364 131.859 85.4009 131.46 85.249L131.452 85.2461L131.444 85.2412L125.312 81.5439L119.26 85.207L119.251 85.2129L119.241 85.2158C118.713 85.4025 118.296 85.3773 118.025 85.1299C117.76 84.8873 117.672 84.4629 117.718 83.9424L117.764 83.5312C117.894 82.5656 118.175 81.5465 118.46 80.5322C118.783 79.3823 119.113 78.2384 119.25 77.167C119.159 77.0262 119.003 76.8658 118.806 76.6904C118.596 76.5038 118.356 76.3113 118.118 76.1084C117.884 75.9083 117.656 75.7008 117.483 75.4941C117.313 75.2898 117.185 75.0718 117.175 74.8506L117.176 74.8496C117.139 74.1459 117.834 73.5959 118.486 73.7598L118.6 73.8076C118.64 73.8294 118.686 73.8583 118.737 73.8916C118.84 73.9584 118.964 74.0482 119.103 74.1533C119.379 74.3638 119.715 74.6387 120.042 74.9209C120.369 75.203 120.69 75.4934 120.938 75.7354C121.062 75.8562 121.169 75.9666 121.25 76.0576C121.29 76.1029 121.324 76.1449 121.352 76.1816C121.365 76.1992 121.377 76.2168 121.388 76.2344L121.415 76.2871V76.2891L121.464 76.4277C121.501 76.5462 121.528 76.672 121.513 76.8086L121.498 76.8916L120.307 82.0693C120.34 82.0564 120.38 82.0398 120.422 82.0186C120.543 81.9568 120.668 81.8775 120.728 81.8418L120.731 81.8398L120.957 81.7129C121.498 81.3962 122.14 80.9471 122.782 80.5137C123.42 80.0836 124.058 79.6672 124.584 79.4258L124.802 79.333C125.095 79.2175 125.396 79.1827 125.699 79.2842L125.829 79.3359L125.838 79.3408L130.353 82.0078C130.35 81.9815 130.349 81.9513 130.344 81.918C130.321 81.7725 130.28 81.573 130.224 81.334C130.111 80.8562 129.946 80.231 129.781 79.5781C129.617 78.9265 129.452 78.2484 129.343 77.6709C129.288 77.3823 129.248 77.117 129.228 76.8916C129.208 76.6688 129.207 76.4756 129.239 76.3359V76.334L129.288 76.1924C129.346 76.0647 129.429 75.9725 129.522 75.8701L129.523 75.8691L129.677 75.71C130.047 75.3395 130.496 74.9817 130.947 74.6348C131.466 74.2363 131.987 73.8533 132.413 73.4756V73.4746L132.541 73.3535C132.586 73.3088 132.632 73.2606 132.681 73.21C132.776 73.11 132.877 73.0023 132.976 72.9092C133.042 72.8428 133.123 72.7954 133.187 72.7598C133.221 72.7406 133.247 72.7262 133.271 72.7119C133.296 72.6973 133.308 72.688 133.312 72.6836L133.4 72.5576C133.42 72.5282 133.443 72.4941 133.471 72.4619C133.409 72.4092 133.334 72.3935 133.241 72.3916C133.177 72.3903 133.111 72.3956 133.036 72.4004C132.964 72.405 132.884 72.4092 132.806 72.3994L132.803 72.3984C132.367 72.3311 132.002 72.3206 131.567 72.2861H131.566C131.373 72.269 131.183 72.2484 130.995 72.2285L130.436 72.1719C130.255 72.1551 130.02 72.147 129.757 72.1357C129.495 72.1245 129.208 72.11 128.928 72.082C128.648 72.0541 128.372 72.0123 128.134 71.9434C127.897 71.8749 127.686 71.7768 127.546 71.6299L127.537 71.6201L127.53 71.6084C127.075 70.7724 126.727 69.8827 126.379 69.0049C126.055 68.1878 125.729 67.381 125.312 66.625L123.188 71.4873L123.185 71.4961L123.179 71.5049C122.875 71.9416 122.378 72.0546 121.971 71.9229C121.562 71.7905 121.24 71.4097 121.29 70.8701L121.291 70.8584L121.295 70.8477C121.72 69.5416 122.25 68.2649 122.799 66.9971C123.348 65.7279 123.915 64.469 124.417 63.1924L124.421 63.1807L124.429 63.1699C124.621 62.9053 124.974 62.763 125.31 62.7539Z" fill="#F26522" stroke="#F26522" stroke-width="0.2"/>
  <path d="M85.7432 62.7373C86.0704 62.7508 86.3998 62.9017 86.584 63.1934L86.6533 63.3262L86.6572 63.3359L86.7949 63.7598C87.1403 64.7518 87.6368 65.7772 88.1309 66.8057C88.6938 67.9775 89.2549 69.1536 89.5742 70.2715L89.6348 70.5283C89.7395 71.1122 89.5935 71.5834 89.2715 71.8184C88.8963 72.0921 88.3465 72.0026 87.8262 71.5088L87.8115 71.4941L87.8037 71.4756L85.6875 66.6309L83.3057 71.7734L83.2822 71.8242L83.2266 71.8311L77.627 72.4746L81.6201 76.0215L81.6318 76.0322L81.6406 76.0469C81.7484 76.2352 81.7886 76.4655 81.79 76.708C81.7915 76.9514 81.7536 77.2153 81.6992 77.4766C81.6447 77.7382 81.5723 78.0011 81.5029 78.2422L81.3223 78.8828C81.3007 78.9697 81.2846 79.063 81.2676 79.1602C81.2517 79.2506 81.2345 79.3446 81.2129 79.4346V79.5518L81.21 79.5625C81.197 79.6199 81.1877 79.6924 81.1758 79.7764C81.1643 79.8572 81.1503 79.9466 81.1279 80.0273C81.1061 80.1061 81.0734 80.1911 81.0137 80.251C80.976 80.2887 80.93 80.311 80.8789 80.3213C80.9609 80.4759 80.9744 80.6537 80.9473 80.8193C80.92 80.9854 80.8501 81.1464 80.7607 81.2744V81.4727C80.7607 81.6087 80.7213 81.7343 80.6914 81.8408C80.6727 81.9074 80.658 81.9682 80.6504 82.0273C80.6854 82.0138 80.7263 81.9981 80.7686 81.9795L81.0674 81.8379C81.1962 81.7703 81.3262 81.6952 81.457 81.6182L81.8545 81.3857C82.083 81.2511 82.2866 81.1003 82.5098 80.9531C82.7299 80.808 82.9619 80.6714 83.2285 80.582L83.2666 80.5625C83.2783 80.5545 83.3044 80.5352 83.3301 80.5205C83.3719 80.4967 83.4214 80.4796 83.4902 80.4707C83.4909 80.4417 83.4939 80.4139 83.502 80.3877C83.5208 80.327 83.5578 80.2848 83.5986 80.2539C83.6369 80.225 83.6812 80.2037 83.7168 80.1875C83.7556 80.1699 83.7883 80.1563 83.8184 80.1377C84.1271 79.938 84.4989 79.6638 84.8809 79.4746C85.2637 79.2851 85.6818 79.1674 86.0908 79.2969H86.0918C86.2316 79.3371 86.32 79.4082 86.3799 79.4717C86.4078 79.5013 86.4313 79.532 86.4453 79.5488C86.4523 79.5572 86.457 79.5625 86.46 79.5654C86.663 79.6647 86.8229 79.7665 86.9658 79.8643L87.3701 80.1367L87.3721 80.1377L87.4238 80.1514C87.452 80.1566 87.4974 80.1639 87.5391 80.1768C87.5831 80.1903 87.6337 80.2128 87.6758 80.2568C87.7073 80.2898 87.7268 80.3317 87.7412 80.3799L90.6816 81.9648C90.5101 81.0953 90.2825 80.2275 90.0674 79.3516C89.8355 78.4075 89.6222 77.4553 89.5254 76.4932L89.5234 76.4766L89.5273 76.4609C89.6025 76.1212 89.8185 75.9296 90.0156 75.7314L90.1768 75.5771C90.3961 75.3738 90.7726 75.0414 91.1426 74.7246C91.3902 74.5126 91.6371 74.3055 91.835 74.1465C91.9337 74.0671 92.0213 73.9992 92.0908 73.9482C92.1255 73.9228 92.1563 73.9008 92.1826 73.8838C92.2067 73.8682 92.2323 73.8528 92.2549 73.8438L92.3896 73.7969C92.706 73.7034 93.0285 73.7305 93.29 73.8682C93.5536 74.0069 93.7493 74.2548 93.8105 74.5889L93.8281 74.7373V74.7393L93.8262 74.8262C93.8077 75.0287 93.6969 75.2268 93.5498 75.4131C93.38 75.6281 93.1487 75.8432 92.9092 76.0498C92.6651 76.2604 92.4203 76.4568 92.2021 76.6504C92.0001 76.8298 91.8384 76.9937 91.7441 77.1387L93.374 84.1445L93.375 84.1523L93.376 84.1611C93.4253 84.9837 92.5697 85.5873 91.8193 85.2227L91.8164 85.2217L91.8633 85.1328L91.8164 85.2207C90.8963 84.7296 90.0023 84.1539 89.1191 83.5742C88.2348 82.9937 87.3618 82.4101 86.4775 81.9004L86.4717 81.8975L86.5273 81.8135L86.4717 81.8965C86.4129 81.8571 86.3425 81.8268 86.2617 81.792L86.2549 81.7891V81.7881C86.0448 81.6796 85.8913 81.6081 85.7373 81.584C85.5895 81.5609 85.4321 81.581 85.2158 81.6758L85.1807 81.6992C85.1567 81.7157 85.1263 81.7369 85.0918 81.7607C85.0245 81.8072 84.9434 81.8634 84.8838 81.8994L84.8828 81.9004C84.1719 82.3202 83.4632 82.7649 82.749 83.21C82.2139 83.5434 81.6759 83.877 81.1318 84.1982L80.5859 84.5146C80.3578 84.6461 80.1356 84.8082 79.9072 84.96C79.6837 85.1085 79.4549 85.2473 79.2295 85.3145C78.9995 85.383 78.7656 85.3786 78.5439 85.2344C78.328 85.0938 78.1376 84.8289 77.9678 84.4092L77.9561 84.3799L77.9629 84.3496L79.5303 77.4297L79.4902 76.998C78.6053 76.1723 77.6754 75.3918 76.751 74.6025C75.814 73.8025 74.8838 72.9929 74.0215 72.1201L74.0059 72.1045L73.998 72.084C73.8488 71.6698 73.8797 71.3071 74.0674 71.0312C74.2533 70.758 74.5804 70.5897 74.9824 70.5303L75.7373 70.4326C76.5012 70.3489 77.2889 70.3014 78.0752 70.2588C79.1246 70.2019 80.1717 70.1542 81.168 70.041L81.376 70.0098C81.5676 69.9765 81.7601 69.93 81.9561 69.8828L84.7734 63.2578L84.7773 63.249C84.9747 62.8845 85.3693 62.7219 85.7432 62.7373Z" fill="#F26522" stroke="#F26522" stroke-width="0.2"/>
  <path d="M85.8105 127.801C86.1223 127.792 86.3677 127.881 86.5479 128.047C86.7462 128.229 86.8531 128.492 86.8955 128.777C86.9798 129.344 86.8126 130.038 86.5186 130.505V130.506C86.0912 131.181 85.2241 131.595 84.4844 131.62C84.1132 131.632 83.7599 131.547 83.5078 131.333C83.2517 131.115 83.1154 130.776 83.1572 130.319V130.318L83.1865 130.128C83.2249 129.951 83.2903 129.814 83.376 129.707C83.4902 129.564 83.634 129.483 83.7783 129.428C83.9167 129.376 84.0732 129.343 84.1924 129.309C84.3199 129.273 84.4184 129.232 84.4873 129.165L84.5293 129.114C84.5675 129.057 84.5956 128.979 84.623 128.88C84.6573 128.757 84.6914 128.596 84.748 128.449C84.8065 128.297 84.8938 128.144 85.0469 128.024C85.1999 127.904 85.4101 127.822 85.7012 127.796L85.8105 127.786V127.801Z" fill="#F26522" stroke="#F26522" stroke-width="0.2"/>
</svg>