<svg width="200" height="200" viewBox="0 0 200 200" fill="none" xmlns="http://www.w3.org/2000/svg">
<circle cx="100" cy="100" r="100" fill="#F1F1F1"/>
<g clip-path="url(#clip0_737_2413)">
<path d="M139.547 105.69C137.764 101.954 132.542 102.71 131.318 106.489C129.792 106.489 128.266 106.489 126.762 106.489C124.828 106.489 122.894 106.489 120.96 106.489C120.81 106.337 121.046 102.645 120.96 101.954C122.378 101.717 125.064 102.3 126.332 101.911C127.493 101.565 126.998 99.6869 126.203 99.6869H120.96V95.3253C122.507 95.3253 124.076 95.3253 125.645 95.3253C127.299 95.3253 129.641 95.5196 131.189 95.3253C131.962 95.2173 132.585 94.915 132.886 94.2024C133.488 92.8637 133.08 91.3522 133.23 89.9271C134.734 89.1714 136.109 88.0918 136.389 86.2996C136.732 84.1404 135.228 81.722 133.058 81.3118C128.438 80.4481 125.817 86.0405 129.341 88.9339C129.706 89.2362 130.823 89.7328 130.888 89.8192C131.038 90.0567 130.974 92.108 130.952 92.583C130.952 92.7557 130.952 92.9069 130.952 93.0796C128.696 93.0796 126.44 93.0796 124.183 93.0796C123.109 93.0796 122.035 93.0796 120.96 93.0796C120.982 91.8489 120.939 90.5965 120.96 89.3441C120.96 88.9123 120.96 88.4804 120.96 88.0486C122.529 87.919 124.355 88.2213 125.881 88.0486C127.665 87.8327 126.998 85.7814 126.203 85.7814H120.96V80.1889C120.96 79.6923 119.907 78.4831 119.435 78.4831H114.363V73.7112C114.363 73.193 112.773 72.8043 112.279 73.5601C111.806 74.2942 112.279 78.3104 112.107 78.4831C111.742 78.4831 111.355 78.4831 110.968 78.4831C109.744 78.5263 108.497 78.4615 107.251 78.4831C107.251 76.0648 107.251 73.6248 107.251 71.1849C107.251 70.278 107.251 69.3495 107.251 68.4211H110.474C110.517 68.4211 110.56 68.9609 110.71 69.2416C112.064 71.8111 115.545 72.4589 117.651 70.3644C118.124 69.8893 118.747 68.6802 118.833 67.9892C119.478 63.1525 113.482 60.9717 110.882 64.8583C110.667 65.1822 110.453 66.0459 110.216 66.1323C109.55 66.3698 107.573 66.0459 106.692 66.1539C105.038 66.3482 104.952 67.6006 104.844 68.9825C104.844 69.2416 105.016 69.5007 104.995 69.7166C104.973 70.8178 104.844 72.0702 104.823 73.193C104.823 74.942 104.844 76.7126 104.823 78.4615H100.482V73.8408C100.482 73.2362 99.2359 72.9339 98.6987 73.193C97.7962 73.6248 98.3763 77.166 98.2259 78.1377C98.2259 78.1377 98.2689 78.3536 98.2044 78.4184C97.9895 78.6127 94.3581 78.3536 93.7134 78.4615C93.7134 76.3023 93.7134 74.1431 93.7134 71.9838C93.7134 70.861 93.6919 69.7382 93.7349 68.6154C97.259 67.7085 98.2044 62.7423 94.9812 60.7557C90.1249 57.7328 85.6124 64.6424 90.0819 67.946C90.3828 68.162 91.3927 68.5506 91.4357 68.6154C91.5431 68.7881 91.4357 70.1485 91.4572 70.5371C91.5002 72.9987 91.5002 75.4602 91.4572 77.9217C91.4572 78.224 91.2853 78.4184 91.2853 78.4615H86.6009V74.0135C86.6009 73.9703 86.2356 73.3225 86.1711 73.2794C85.4405 72.8043 84.1727 73.3225 84.1727 74.1862V78.4831C82.6686 78.6343 80.7991 78.2888 79.3379 78.4831C76.5445 78.8718 77.8767 83.5358 77.5759 85.4359C77.5759 85.4359 77.6404 85.7166 77.4685 85.7598C76.4155 86.0405 72.7841 85.0041 72.8915 86.969C72.913 87.3145 73.4717 88.027 73.7725 88.027H77.5544V93.0364C75.9428 92.9933 74.3312 93.0796 72.7196 93.0364C72.6336 93.0364 72.3973 92.8853 72.1609 92.8637C70.8931 92.8205 69.6253 92.9069 68.3575 92.8637C68.5294 91.7409 67.9063 90.2078 68.8517 89.4521C70.0121 88.5236 71.151 88.3725 71.4088 86.4508C72.1824 80.8583 64.9194 79.2173 63.2004 83.946C62.5987 85.5871 62.7277 87.2497 63.9955 88.5668C64.5756 89.1714 65.3277 89.3441 65.9079 89.884C66.0583 91.9352 65.2418 94.9798 68.0997 95.2821C69.8832 95.4764 72.2683 95.2821 74.1378 95.2821C75.2552 95.2821 76.3941 95.2821 77.5329 95.2821V99.6437H73.751C73.1923 99.6437 72.9775 100.464 73.0204 100.939C73.0849 101.63 73.3428 101.846 73.9874 101.911C75.0833 102.041 76.3941 101.825 77.5329 101.911C77.5329 102.71 77.5329 103.53 77.5329 104.351C77.5329 105.042 77.5329 105.754 77.5329 106.467C75.8783 106.467 74.2023 106.467 72.5262 106.467C71.2154 106.467 69.9047 106.489 68.5939 106.445C67.9922 105.323 67.584 104.416 66.4021 103.789C64.6401 102.839 63.2434 103.077 61.7177 104.2C60.7293 104.934 60.0846 105.668 59.9342 107.028C59.5044 111.412 64.9409 113.83 67.6699 110.181C68.0567 109.684 68.2501 109.252 68.5724 108.756C70.3559 108.713 72.1609 108.734 73.9444 108.734C75.1263 108.734 76.3081 108.734 77.4899 108.734C77.447 110.181 77.5329 111.649 77.4899 113.117C77.4899 113.29 77.4899 113.441 77.4899 113.614C76.2651 113.787 72.3973 112.902 72.8485 115.104C72.913 115.406 73.4502 116.032 73.708 116.032H77.4899V120.329C77.4899 120.955 78.6933 122.035 79.3379 122.035H84.0868V126.332C84.0868 127.304 85.7199 127.865 86.3215 126.807C86.7083 126.116 86.4505 123.59 86.4934 122.597C86.4934 122.316 86.3645 121.992 86.8158 122.035C86.9877 122.186 90.7266 121.927 91.3283 122.035C91.3283 122.575 91.3283 123.115 91.3283 123.655C91.3712 125.965 91.4787 128.664 91.3283 130.953C91.2853 131.644 90.9844 131.493 90.3613 131.924C89.4158 132.594 88.7497 133.026 88.3844 134.235C86.8372 139.201 93.5415 142.44 96.1631 137.754C96.7218 136.761 96.8722 136.848 96.8077 135.487C96.7218 133.371 95.4754 132.097 93.5845 131.341C93.606 129.269 93.5845 127.196 93.5845 125.123C93.5845 124.108 93.5845 123.072 93.5845 122.057H98.097V126.677C98.097 127.174 99.7731 127.865 100.267 126.764C100.525 126.202 100.31 123.719 100.353 122.877C100.353 122.769 100.353 122.661 100.353 122.553C100.353 122.402 100.353 122.229 100.353 122.057H104.715C104.715 123.935 104.694 125.835 104.715 127.736C104.715 129.031 104.457 131.622 105.059 132.659C106.091 134.429 108.691 133.112 110.087 133.587C110.324 133.673 110.539 134.516 110.753 134.861C111.656 136.2 113.268 136.977 114.858 136.804C121.412 136.178 118.854 125.706 112.601 128.47C111.699 128.858 110.324 130.348 110.195 131.298H107.122C107.122 130.65 107.122 130.003 107.122 129.355C107.1 126.937 107.143 124.497 107.122 122.057H111.957V126.505C111.957 126.807 112.666 127.368 113.01 127.39C113.354 127.412 114.213 126.872 114.213 126.656V122.035C114.75 122.035 115.287 122.035 115.825 122.035C117.479 122.014 120.466 122.51 120.81 120.157C120.939 119.206 120.81 117.997 120.81 117.004C120.81 116.68 120.81 116.356 120.81 116.032C121.003 115.816 125.559 116.399 126.504 115.73C127.385 115.104 126.569 113.614 125.731 113.614H120.81C120.831 112.189 120.767 110.742 120.81 109.296C120.81 108.993 120.982 108.821 120.982 108.756C123.388 108.777 125.817 108.734 128.245 108.756C128.911 108.756 130.759 108.626 131.21 108.777C131.425 108.864 131.726 109.792 131.962 110.138C135.078 114.478 141.718 110.462 139.44 105.711L139.547 105.69ZM131.532 83.5142C133.961 83.0176 135.099 86.1485 133.08 87.336C130.329 88.9555 128.589 84.1188 131.532 83.5142ZM114.127 65.2254C117.264 64.6856 117.544 69.7598 114.106 69.22C111.978 68.8961 112.064 65.5925 114.127 65.2254ZM65.1773 85.2632C65.2632 84.054 66.5096 83.3198 67.6269 83.5142C69.7542 83.8813 69.7972 87.3792 67.4335 87.5304C65.9509 87.6167 65.0699 86.7746 65.1773 85.2632ZM62.3838 108.238C62.1905 107.503 62.4268 106.251 63.0715 105.841C64.9409 104.632 67.3476 106.791 66.1228 108.756C65.2418 110.159 62.8136 109.879 62.3624 108.238H62.3838ZM114.299 130.327C117.006 129.96 117.415 134.148 114.879 134.494C112.215 134.861 111.506 130.694 114.299 130.327ZM92.3812 62.3104C94.6804 61.9865 95.5829 65.3118 93.5415 66.2402C90.5762 67.6006 89.2654 62.7207 92.3812 62.3104ZM90.6621 135.077C90.7481 134.58 91.3068 133.846 91.7795 133.695C93.5845 133.09 95.1746 134.623 94.53 136.459C93.7779 138.575 90.1894 137.97 90.6621 135.099V135.077ZM114.492 119.595C108.862 119.595 103.211 119.595 97.5598 119.595C97.4523 119.595 97.3449 119.595 97.2375 119.595C93.3266 119.595 89.3943 119.595 85.462 119.595C83.5926 119.595 81.7016 119.595 79.8107 119.595C79.8107 117.976 79.8107 116.356 79.8107 114.737C79.8107 111.822 79.8107 108.907 79.8107 105.992C79.8107 99.6221 79.7892 93.2524 79.8107 86.8826C79.8107 84.8313 79.8107 82.78 79.8107 80.7288C80.133 80.7288 80.4553 80.7288 80.7776 80.7288C84.6884 80.5992 88.7712 80.7288 92.7035 80.7288C95.325 80.7288 97.9681 80.7288 100.611 80.7288C104.586 80.7288 108.562 80.7288 112.537 80.7288C114.578 80.7288 116.62 80.7288 118.661 80.7288C118.661 83.1039 118.661 85.4791 118.661 87.8543C118.661 91.7841 118.661 95.7355 118.661 99.6869C118.661 101.846 118.661 104.005 118.661 106.165C118.661 109.296 118.661 112.426 118.661 115.557C118.661 116.896 118.661 118.256 118.661 119.617C117.264 119.617 115.868 119.617 114.471 119.617L114.492 119.595ZM136.561 109.468C133.66 110.829 132.241 105.992 135.25 105.56C137.764 105.193 138.58 108.518 136.561 109.468Z" fill="#F26522"/>
<path d="M112.732 95.2173C112.861 94.9582 112.066 94.1808 112.001 94.1808H105.319V87.6167C105.319 87.4656 104.717 86.7099 104.437 86.7314C101.408 86.7962 98.3564 86.6235 95.3266 86.7314C94.4885 86.753 93.5216 86.5371 93.2637 87.6599C92.8769 89.4089 93.4786 92.3023 93.2207 94.1808L86.5594 94.224C85.4635 94.7854 85.8288 96.0378 85.8074 97.0958C85.7429 99.8165 85.8503 102.537 85.8074 105.258C85.8074 105.711 86.4735 106.316 86.8388 106.316H93.1992V112.88C93.1992 113.398 94.1232 113.722 94.5745 113.765C96.7018 114.003 100.161 113.83 102.396 113.765C102.998 113.765 105.297 113.852 105.297 112.88V106.316H111.657C112.41 106.316 112.667 105.452 112.71 104.848C112.968 101.738 112.517 98.3482 112.71 95.1957L112.732 95.2173ZM110.476 103.897C110.218 104.135 104.674 103.552 103.642 104.07C103.535 104.135 103.062 104.567 103.062 104.61V111.325C102.31 111.325 101.558 111.325 100.806 111.325C99.044 111.325 97.2605 111.325 95.477 111.325V104.61C95.477 104.545 94.7034 103.876 94.596 103.876H88.0636C88.0636 102.105 88.0636 100.313 88.0636 98.5209C88.0636 97.83 88.0636 97.1174 88.0636 96.4049C88.2785 96.1889 93.5001 96.5344 94.4456 96.4049C94.9398 96.3401 94.8108 96.2321 95.0042 96.081C95.348 95.8219 95.434 95.8866 95.4985 95.3684C95.6274 94.4399 95.2621 89.193 95.4985 88.9555C95.9282 88.9555 96.358 88.9555 96.7877 88.9555C98.8721 88.9123 100.978 88.9987 103.062 88.9555V95.6707C103.062 95.865 103.728 96.4049 103.793 96.4049H110.476C110.433 98.7153 110.54 101.047 110.476 103.358C110.476 103.53 110.476 103.682 110.476 103.854V103.897Z" fill="#F26522"/>
</g>
<defs>
<clipPath id="clip0_737_2413">
<rect width="80" height="80" fill="white" transform="translate(60 60)"/>
</clipPath>
</defs>
</svg>
