<svg xmlns="http://www.w3.org/2000/svg" width="200" height="200" viewBox="0 0 200 200" fill="none">
  <circle cx="100" cy="100" r="100" fill="#F1F1F1"/>
  <path d="M110.981 59.8655L110.994 59.8685L111.278 59.9222C117.207 61.1415 120.582 67.6 117.685 73.1526L117.683 73.1566L108.481 89.6819C114.103 93.5052 118.475 99.0212 120.271 105.699L120.459 106.436C124.099 121.664 113.853 136.112 99.0449 139.467L98.3252 139.621C97.7623 139.734 97.1904 139.798 96.6338 139.871C96.0742 139.945 95.5266 140.028 94.9971 140.176L94.9775 140.182H89.5479L89.5303 140.177C88.829 140.003 88.1148 139.881 87.3926 139.757C86.8524 139.665 86.3076 139.572 85.7646 139.456L85.2217 139.333C74.5083 136.716 66.0843 128.23 63.9785 117.312L63.8828 116.79L63.8799 116.772L63.8809 116.753L63.8916 116.53C63.8952 116.301 63.8812 116.059 63.8691 115.81C63.8533 115.483 63.84 115.143 63.8818 114.832C64.7722 107.719 73.3232 104.383 78.7881 109.001L79.0771 109.258C80.4694 110.551 81.0314 111.986 81.4775 113.417C81.9549 114.949 82.2967 116.454 83.3574 117.837L83.5713 118.107C85.825 120.852 89.3605 122.188 92.8359 122.083C96.4226 121.975 99.9248 120.333 101.873 117.149L102.134 116.695C104.672 111.982 102.31 106.627 97.6416 104.326V104.326C96.5977 103.819 95.5525 103.63 94.4951 103.441C93.5738 103.276 92.6421 103.109 91.7217 102.721L91.3281 102.54C88.6088 101.194 86.5582 98.0864 86.3799 95.0374L86.3711 94.8128C86.3599 94.2115 86.417 93.1036 86.6523 92.1741C86.786 91.6465 86.9836 91.1512 87.2783 90.845C87.4284 90.6892 87.6084 90.5772 87.8213 90.5413C88.0343 90.5054 88.2637 90.5488 88.5059 90.6712L88.6143 90.7347C88.8503 90.8934 88.9747 91.1257 89.0254 91.39C89.0817 91.6845 89.0479 92.0239 88.9844 92.3607C88.9207 92.6981 88.8232 93.0534 88.7422 93.3763C88.6803 93.6232 88.6286 93.8502 88.6035 94.0482L88.5879 94.2357C88.5257 96.3402 89.5066 98.4772 91.1533 99.7698L91.3506 99.9173C92.3365 100.624 93.3647 100.913 94.4404 101.136C95.4397 101.343 96.4924 101.494 97.5615 101.88L98.0215 102.061V102.062L98.4102 102.236C102.375 104.089 104.774 107.547 105.283 111.231C105.809 115.035 104.319 119.068 100.481 121.81L100.482 121.811C96.1393 124.922 90.8027 125.063 86.0088 122.974L85.9795 122.961L85.959 122.939C85.666 122.623 85.1613 122.307 84.6045 121.964C84.1267 121.67 83.6143 121.359 83.208 121.022L83.041 120.875C80.8691 118.86 80.7629 117.368 79.5908 115.097L79.5771 115.071L79.5752 115.04C79.4006 112.999 78.4114 111.506 76.7979 110.426L76.4668 110.216C75.406 109.578 74.4378 109.206 73.4473 109.11C72.581 109.025 71.6878 109.15 70.6904 109.503L70.2568 109.669C68.5711 110.354 67.512 111.391 66.9082 112.63C66.3027 113.872 66.1486 115.33 66.2969 116.858C66.5939 119.917 68.1 123.222 69.5332 125.547H69.5322C76.2495 136.43 89.9584 140.57 101.87 136.242L102.317 136.075C121.126 128.89 124.977 104.905 108.541 92.5501H108.54C108.384 92.4321 108.141 92.2806 107.854 92.1048C107.571 91.9309 107.249 91.7356 106.946 91.5335C106.644 91.3319 106.354 91.1191 106.135 90.9095C106.025 90.8045 105.93 90.6968 105.859 90.5882C105.79 90.4804 105.739 90.3634 105.73 90.2415V90.2366C105.726 90.1113 105.755 89.9751 105.799 89.8431C105.843 89.7093 105.904 89.5693 105.97 89.4339C106.036 89.2982 106.109 89.1641 106.176 89.0413C106.243 88.9172 106.303 88.8066 106.35 88.7142L106.879 87.6761C108.15 85.2493 109.676 82.797 111.17 80.3538C112.88 77.5582 114.549 74.7731 115.761 72.0345L115.938 71.6019C116.764 69.4376 116.59 67.3052 115.66 65.6058C114.669 63.7944 112.814 62.4619 110.363 62.1087L80.585 62.0784C76.3333 62.418 74.2734 65.6179 74.248 68.8382C74.2228 72.0659 76.2399 75.2782 80.1357 75.6439L80.6094 75.6839C82.9885 75.8637 85.575 75.7301 88.1641 75.6068C90.9204 75.4754 93.6802 75.3553 96.167 75.6439H96.166C96.6838 75.7015 97.0454 75.8678 97.2178 76.1907C97.364 76.4651 97.3509 76.8134 97.248 77.2103L97.1992 77.3831C97.1072 77.6766 96.8598 78.1974 96.5371 78.8196C96.2122 79.4462 95.8047 80.188 95.3838 80.929C94.5432 82.4089 93.6457 83.8953 93.252 84.4671V84.4681C93.147 84.6201 93.0476 84.7678 92.9492 84.8919C92.8503 85.0166 92.7431 85.1284 92.6143 85.2073C92.3409 85.3747 92.0185 85.3661 91.5762 85.1741L91.4746 85.1243C91.2505 84.9935 91.1108 84.7708 91.0439 84.5345C90.9679 84.2651 90.9813 83.9609 91.0811 83.7064L91.084 83.6966L91.0889 83.6888L94.2305 78.0052C92.191 77.9246 90.1045 77.9808 88.0137 78.0325C86.1137 78.0796 84.2102 78.1224 82.3428 78.0521L81.5439 78.014C76.394 77.7155 73.1228 74.6048 72.2539 70.9407C71.3852 67.2768 72.9254 63.0871 77.3301 60.6497L77.3428 60.6429L77.3555 60.638L79.6777 59.8734L79.7002 59.8655H110.981Z" fill="#F26522" stroke="#F26522" stroke-width="0.3"/>
  <path d="M90.1045 86.1218C90.4124 85.9749 90.7512 85.9546 91.0674 86.1707H91.0664C91.3172 86.3358 91.4341 86.5838 91.4639 86.8552C91.4931 87.1222 91.4391 87.4175 91.3496 87.7009C91.1707 88.2673 90.8322 88.8336 90.6113 89.1375L90.6123 89.1384C90.2752 89.6183 89.6002 89.8129 89.0664 89.6316H89.0459L89.0186 89.6208C88.9874 89.6083 88.9648 89.5888 88.9541 89.5789C88.9407 89.5663 88.9272 89.5523 88.916 89.5388C88.8934 89.5117 88.8695 89.4771 88.8447 89.4402C88.7947 89.3656 88.7368 89.2691 88.6826 89.1697C88.6284 89.0702 88.5757 88.9638 88.5361 88.8699C88.5164 88.8231 88.4989 88.777 88.4863 88.7351C88.4746 88.696 88.4629 88.6493 88.4629 88.6052C88.463 88.3998 88.5575 88.1 88.6992 87.7917C88.8438 87.4772 89.0484 87.132 89.2871 86.8308C89.524 86.532 89.804 86.2653 90.1045 86.1218Z" fill="#F26522" stroke="#F26522" stroke-width="0.3"/>
  <path d="M129.494 74.6714C131.942 74.4966 133.894 75.2741 135.301 76.5797C136.798 77.9693 137.669 79.9491 137.875 81.9908C138.081 84.0325 137.623 86.1482 136.446 87.8121C135.341 89.3753 133.607 90.5312 131.217 90.8531L130.73 90.9068C128.067 91.1293 125.977 90.308 124.507 88.9234C123.039 87.5413 122.197 85.6062 122.008 83.6099C121.819 81.6136 122.283 79.5463 123.438 77.899C124.594 76.2488 126.441 75.0272 128.998 74.7193L129.494 74.6714ZM129.676 76.9146C127.746 77.0082 126.347 77.8157 125.446 78.9605C124.544 80.1085 124.135 81.6057 124.209 83.0845C124.283 84.5634 124.839 86.0138 125.851 87.0689C126.859 88.1209 128.328 88.7884 130.249 88.6949L130.604 88.6685C132.343 88.4986 133.62 87.7229 134.46 86.65C135.359 85.502 135.765 84.0041 135.691 82.525C135.617 81.046 135.064 79.5956 134.057 78.5406C133.115 77.5542 131.77 76.9059 130.029 76.9058L129.676 76.9146Z" fill="#F26522" stroke="#F26522" stroke-width="0.3"/>
  <path d="M129.356 109.091C131.905 108.904 133.913 109.689 135.345 111.011C136.868 112.418 137.728 114.425 137.899 116.488C138.071 118.55 137.556 120.68 136.316 122.336C135.152 123.892 133.353 125.022 130.906 125.287L130.408 125.329C127.851 125.479 125.839 124.619 124.423 123.22C123.009 121.823 122.195 119.897 122.014 117.918C121.832 115.94 122.282 113.9 123.407 112.276C124.535 110.648 126.337 109.446 128.84 109.142L129.356 109.091ZM129.536 111.305L129.192 111.336C127.214 111.566 125.865 112.527 125.072 113.8C124.277 115.078 124.036 116.681 124.299 118.199C124.562 119.717 125.327 121.137 126.525 122.051C127.72 122.962 129.359 123.382 131.397 122.882L131.711 122.796C134.89 121.844 136.097 118.859 135.63 116.153C135.389 114.757 134.702 113.446 133.618 112.538C132.604 111.689 131.234 111.187 129.536 111.305Z" fill="#F26522" stroke="#F26522" stroke-width="0.3"/>
  <path d="M130.233 91.7844C132.244 91.9197 134.142 92.8797 135.574 94.3039C137.006 95.7281 137.98 97.6242 138.13 99.6418C138.271 101.537 137.684 103.53 136.086 105.326L135.752 105.683C133.871 107.601 131.733 108.325 129.702 108.202C127.675 108.08 125.765 107.117 124.331 105.68C122.897 104.243 121.93 102.326 121.796 100.289C121.662 98.2488 122.365 96.099 124.25 94.2053L124.601 93.8693C126.368 92.2592 128.345 91.6574 130.233 91.7844ZM129.716 94.1115L129.349 94.1408C127.481 94.3397 126.146 95.1885 125.302 96.34C124.455 97.4944 124.095 98.9621 124.197 100.404C124.402 103.288 126.447 106.023 130.076 105.922L130.445 105.902C132.258 105.759 133.579 104.971 134.44 103.87C135.362 102.693 135.764 101.147 135.668 99.6291C135.572 98.1115 134.977 96.6338 133.917 95.59C132.927 94.6146 131.523 94.0099 129.716 94.1115Z" fill="#F26522" stroke="#F26522" stroke-width="0.3"/>
</svg>